<?xml version="1.0" encoding="UTF-8"?>
<svg version="1.1" xmlns="http://www.w3.org/2000/svg" width="512" height="512">
<path d="M0 0 C0.97055328 0.00215515 1.94110657 0.0043103 2.94107056 0.00653076 C17.26930898 0.0575666 31.29685782 0.40491562 45.375 3.3125 C46.35807129 3.51117676 47.34114258 3.70985352 48.35400391 3.91455078 C103.61882441 15.40832479 156.48986189 45.30141029 191.375 90.3125 C192.03556396 91.15772217 192.03556396 91.15772217 192.70947266 92.02001953 C201.0923316 102.74716321 201.0923316 102.74716321 202.375 105.3125 C202.71756836 104.53648438 203.06013672 103.76046875 203.41308594 102.9609375 C204.70125625 100.04537579 205.99117301 97.13059458 207.28222656 94.21630859 C207.83760064 92.96172949 208.39230451 91.70685345 208.94628906 90.45166016 C217.97130247 70.00690958 217.97130247 70.00690958 221.8125 66.9375 C222.36808594 66.47601563 222.92367188 66.01453125 223.49609375 65.5390625 C229.1786178 61.829473 234.77148179 61.57157229 241.375 62.3125 C248.0487421 64.29323964 251.86694725 68.26741883 255.480896 74.09613037 C258.30928812 81.1073532 256.95014724 89.75011382 254.32714844 96.60839844 C253.40566004 98.7244503 252.45696545 100.82881882 251.484375 102.921875 C250.98335266 104.05473938 250.48233032 105.18760376 249.96612549 106.35479736 C248.37641241 109.93534068 246.75192573 113.49873491 245.125 117.0625 C244.04836563 119.46636747 242.97412586 121.87130894 241.90234375 124.27734375 C240.38831236 127.6748384 238.87121241 131.07046525 237.3348999 134.45794678 C235.99988036 137.40303015 234.68308713 140.35536927 233.375 143.3125 C232.95842636 144.23630463 232.54185272 145.16010925 232.11265564 146.11190796 C231.73605301 146.98521759 231.35945038 147.85852722 230.97143555 148.75830078 C230.63710007 149.52006622 230.30276459 150.28183167 229.95829773 151.06668091 C228.81759989 155.45860781 230.74680538 159.25405977 232.375 163.3125 C232.95049603 165.07612746 233.51145765 166.84455681 234.05859375 168.6171875 C234.34452393 169.52001465 234.6304541 170.4228418 234.92504883 171.35302734 C237.54707886 179.72765421 239.95693769 188.08002697 241.6875 196.6875 C241.83437256 197.40921387 241.98124512 198.13092773 242.13256836 198.87451172 C245.03176453 214.20487888 245.74978888 229.37044421 245.6875 244.9375 C245.68534485 245.90805328 245.6831897 246.87860657 245.68096924 247.87857056 C245.6299334 262.20680898 245.28258438 276.23435782 242.375 290.3125 C242.17632324 291.29557129 241.97764648 292.27864258 241.77294922 293.29150391 C235.25907655 324.61176508 223.56434083 354.85932325 205.375 381.3125 C204.97216797 381.90772461 204.56933594 382.50294922 204.15429688 383.11621094 C198.11665602 392.00044157 191.47859018 400.26243572 184.375 408.3125 C183.71612793 409.06611816 183.71612793 409.06611816 183.04394531 409.83496094 C142.68702602 455.81612102 83.40246467 485.52001562 22.375 490.3125 C19.15728306 490.4646742 15.94364078 490.5211992 12.72265625 490.55078125 C11.83309738 490.5605751 10.94353851 490.57036896 10.02702332 490.58045959 C-9.8646769 490.75432845 -29.09440907 490.5324856 -48.625 486.3125 C-49.65415527 486.09287598 -50.68331055 485.87325195 -51.74365234 485.64697266 C-58.77402267 484.10372063 -65.71235043 482.31657713 -72.625 480.3125 C-73.86926758 479.95212646 -73.86926758 479.95212646 -75.13867188 479.58447266 C-97.44562038 472.90414765 -119.75696326 461.93674275 -138.625 448.3125 C-139.31368164 447.82007813 -140.00236328 447.32765625 -140.71191406 446.8203125 C-149.12802769 440.76654934 -157.03404217 434.38277841 -164.625 427.3125 C-165.99575183 426.12009878 -167.37057863 424.93236117 -168.75 423.75 C-175.62069648 417.73297723 -181.63315 411.28081532 -187.34375 404.15234375 C-188.82092633 402.31346157 -190.3197954 400.49171177 -191.84375 398.69140625 C-202.55284116 386.00264155 -210.93095286 371.98210835 -218.625 357.3125 C-219.0051123 356.59707031 -219.38522461 355.88164062 -219.77685547 355.14453125 C-237.51219771 321.35120234 -245.08921612 283.60395532 -244.9375 245.6875 C-244.93534485 244.71694672 -244.9331897 243.74639343 -244.93096924 242.74642944 C-244.87994138 228.42043322 -244.5408114 214.38739711 -241.625 200.3125 C-241.42100586 199.31347656 -241.21701172 198.31445312 -241.00683594 197.28515625 C-238.45844008 185.16265601 -235.44063558 173.35310087 -230.54589844 161.94262695 C-226.66748204 152.1543941 -233.01338539 142.77699923 -236.9140625 133.69140625 C-237.41795502 132.5102977 -237.92184753 131.32918915 -238.44100952 130.11228943 C-239.76904347 126.99974477 -241.10140622 123.88907144 -242.43463135 120.77874756 C-243.52584147 118.23095693 -244.61390394 115.68182796 -245.70182228 113.13263035 C-247.94718075 107.87160323 -250.19491947 102.61158993 -252.44775391 97.35375977 C-252.84507721 96.42604263 -253.24240051 95.4983255 -253.65176392 94.54249573 C-254.27410364 93.11651599 -254.92919472 91.70411056 -255.625 90.3125 C-256.31387256 82.81363018 -256.75545134 76.06158796 -252.05078125 69.859375 C-248.03376427 65.50118672 -243.96245157 62.74152965 -238.01171875 61.9765625 C-229.81856255 61.85799295 -224.77034382 63.28981582 -218.8203125 69.0078125 C-214.07923665 74.69517535 -211.61923791 81.85140584 -208.8125 88.625 C-208.2231944 90.02198662 -207.63270861 91.418476 -207.04101562 92.81445312 C-205.96545735 95.35424023 -204.89832705 97.89693664 -203.83666992 100.44262695 C-203.14321554 102.08509246 -202.42231699 103.71786602 -201.625 105.3125 C-201.00753906 104.41789062 -200.39007813 103.52328125 -199.75390625 102.6015625 C-194.47418458 95.03329627 -188.93037993 88.06826421 -182.625 81.3125 C-181.47418628 79.98346291 -180.32810316 78.65031024 -179.1875 77.3125 C-171.71403675 68.77385348 -163.53924895 61.31397488 -154.625 54.3125 C-153.63886719 53.52101562 -152.65273437 52.72953125 -151.63671875 51.9140625 C-128.78993622 33.87563146 -103.20991994 20.53942366 -75.625 11.3125 C-74.84189453 11.05001465 -74.05878906 10.7875293 -73.25195312 10.51708984 C-65.15884023 7.85940906 -56.96518523 5.84526364 -48.625 4.125 C-47.87895508 3.96990967 -47.13291016 3.81481934 -46.36425781 3.6550293 C-30.93627433 0.65223446 -15.67921691 -0.06273767 0 0 Z " fill="#FDF056" transform="translate(255.625,10.6875)"/>
<path d="M0 0 C7.24757596 5.86256799 12.37142109 17.042816 14 26 C14.14019707 29.67516603 14.09972397 33.32478829 14 37 C7.79591145 39.6370602 1.48626122 41.89570881 -4.89453125 44.05859375 C-6.5254055 44.61519078 -8.15626462 45.17183217 -9.78710938 45.72851562 C-12.31043662 46.58900397 -14.83490508 47.44497122 -17.36401367 48.28833008 C-19.83731174 49.11498817 -22.30364679 49.96011687 -24.76953125 50.80859375 C-25.89776054 51.17760048 -25.89776054 51.17760048 -27.04878235 51.55406189 C-28.11095222 51.92453392 -28.11095222 51.92453392 -29.19458008 52.30249023 C-29.810616 52.51026596 -30.42665192 52.71804169 -31.06135559 52.93211365 C-34.08905837 54.59989886 -35.82672908 56.27820419 -38 59 C-38.69813197 62.12584455 -38.58821281 65.1695437 -38.4979248 68.359375 C-38.488233 69.7792262 -38.488233 69.7792262 -38.47834539 71.22776127 C-38.45109803 74.40256784 -38.38830991 77.57569924 -38.32617188 80.75 C-38.30024628 83.02515557 -38.27682442 85.30034085 -38.25572205 87.57554626 C-38.20687553 92.4779235 -38.1441681 97.37986415 -38.07197571 102.2819519 C-37.96176696 110.04012935 -37.90658403 117.79807811 -37.86364746 125.55688477 C-37.84829096 128.21418791 -37.83289064 130.87149076 -37.81743622 133.52879333 C-37.81360905 134.19289296 -37.80978188 134.85699258 -37.80583873 135.54121643 C-37.76186607 143.09801051 -37.70957284 150.654732 -37.65087891 158.21142578 C-37.64553349 158.90200148 -37.64018808 159.59257718 -37.63468069 160.30407941 C-37.54623105 171.47961968 -37.39811322 182.65372792 -37.23227423 193.82835126 C-37.06364823 205.31752622 -36.9774418 216.80508472 -36.95846033 228.29552269 C-36.94464845 234.74189988 -36.89225449 241.1828147 -36.74729919 247.62768555 C-36.61113365 253.69692569 -36.57354911 259.75894765 -36.60980415 265.82953072 C-36.60567984 268.04977952 -36.56582836 270.27031048 -36.48660088 272.48914909 C-36.02462641 286.09935733 -36.02462641 286.09935733 -39 292 C-44.04624737 297.37657549 -50.58724915 300.59900831 -57.19478607 303.67992496 C-61.03730022 305.4881318 -64.75178127 307.51238845 -68.48578787 309.5328064 C-98.13165171 325.46980953 -133.93578129 334.92862276 -167.65234375 335.23828125 C-168.54190262 335.2480751 -169.43146149 335.25786896 -170.34797668 335.26795959 C-190.2396769 335.44182845 -209.46940907 335.2199856 -229 331 C-230.02915527 330.78037598 -231.05831055 330.56075195 -232.11865234 330.33447266 C-239.14902267 328.79122063 -246.08735043 327.00407713 -253 325 C-254.24426758 324.63962646 -254.24426758 324.63962646 -255.51367188 324.27197266 C-277.82062038 317.59164765 -300.13196326 306.62424275 -319 293 C-319.68868164 292.50757813 -320.37736328 292.01515625 -321.08691406 291.5078125 C-329.50302769 285.45404934 -337.40904217 279.07027841 -345 272 C-346.37075183 270.80759878 -347.74557863 269.61986117 -349.125 268.4375 C-355.99216526 262.4235697 -362.0009419 255.97434051 -367.7109375 248.8515625 C-369.21672735 246.97574921 -370.7424062 245.11570047 -372.2890625 243.2734375 C-387 225.73152921 -387 225.73152921 -387 221 C-377.39044321 217.40898476 -368.7926781 218.27671868 -359.4375 222.09765625 C-356.12357797 223.3244447 -353.4885025 223.48839035 -350 223 C-347.43481086 221.81606655 -345.42133883 220.34041946 -343.23046875 218.5703125 C-335.91559137 212.77035055 -330.40975966 211 -321 211 C-321 204.4 -321 197.8 -321 191 C-318.01670654 191.00523682 -315.03341309 191.01047363 -311.9597168 191.01586914 C-302.11696318 191.03241856 -292.27420895 191.04347666 -282.43144512 191.05181217 C-276.46218316 191.05703688 -270.49293542 191.0641271 -264.52368164 191.07543945 C-258.76600313 191.08628291 -253.00833833 191.09227995 -247.25065041 191.09487724 C-245.05096025 191.09672885 -242.85127087 191.10034443 -240.65158653 191.10573006 C-237.57719663 191.11295978 -234.50286379 191.11399012 -231.4284668 191.11352539 C-230.51352951 191.11712067 -229.59859222 191.12071594 -228.65592957 191.12442017 C-227.81880432 191.1230455 -226.98167908 191.12167084 -226.1191864 191.12025452 C-225.0282444 191.12163721 -225.0282444 191.12163721 -223.91526318 191.12304783 C-221.77749209 191.06736044 -221.77749209 191.06736044 -219 190 C-206.72339954 189.20837989 -198.60343484 189.99107529 -188.4375 197.25 C-185.12874107 199.47485514 -182.39482426 201.03424584 -178.23828125 200.734375 C-173.97868151 199.33680999 -170.5038568 196.59038739 -166.9296875 193.9453125 C-161.36243258 190.24865523 -156.37309776 189.69761396 -149.8125 189.8125 C-148.74612305 189.8134668 -148.74612305 189.8134668 -147.65820312 189.81445312 C-144.51430692 189.84107125 -142.00190612 189.99936463 -139 191 C-139 155.36 -139 119.72 -139 83 C-144.12939824 84.02587965 -144.55011673 84.22192357 -147.75 87.75 C-151.30563169 90.99876666 -151.30563169 90.99876666 -154.19921875 91.00390625 C-156.66682603 90.24166107 -158.74425851 89.25830478 -161 88 C-161.77859375 87.5771875 -162.5571875 87.154375 -163.359375 86.71875 C-172.00362232 81.49739256 -176.03097102 74.85615799 -179.43359375 65.515625 C-180.06076847 62.73010416 -180.18714299 61.58499101 -179 59 C-176.8828125 56.73828125 -176.8828125 56.73828125 -174.125 54.3125 C-173.63249756 53.87607178 -173.13999512 53.43964355 -172.63256836 52.98999023 C-168.46075412 49.32248311 -164.14405399 45.83765607 -159.8203125 42.3515625 C-156.76577618 39.80470535 -153.84786557 37.14596362 -150.9375 34.4375 C-134.05276739 18.77985551 -134.05276739 18.77985551 -123.36474609 18.71289062 C-122.71844238 18.70605759 -122.07213867 18.69922455 -121.40625 18.69218445 C-120.00895001 18.67864548 -118.61160117 18.66956079 -117.21424484 18.66447449 C-114.99272551 18.6561347 -112.77160742 18.63557921 -110.55020142 18.61193848 C-105.82519458 18.56382234 -101.10014675 18.53087467 -96.375 18.5 C-90.91565149 18.46415297 -85.45649731 18.42186561 -79.99733353 18.36405945 C-77.82675668 18.34423693 -75.65633496 18.33571917 -73.48568726 18.32775879 C-63.13558572 18.24985939 -53.69636717 17.28729984 -43.9609375 13.609375 C-42.72843262 13.14950195 -41.49592773 12.68962891 -40.22607422 12.21582031 C-39.59602478 11.97593384 -38.96597534 11.73604736 -38.3168335 11.4888916 C-36.34098607 10.73705728 -34.36096315 9.99735475 -32.37939453 9.26074219 C-28.58329503 7.84832915 -24.79142665 6.4249098 -21 5 C-17.63018461 3.73521365 -14.25633492 2.48361641 -10.875 1.25 C-10.21419434 0.99831055 -9.55338867 0.74662109 -8.87255859 0.48730469 C-5.58850847 -0.70352735 -3.25848235 -1.5201402 0 0 Z " fill="#391A6F" transform="translate(436,166)"/>
<path d="M0 0 C11.39837297 2.70934299 22.28658477 6.99617978 33.26269531 11.0324707 C35.83228357 11.97559483 38.40429772 12.91186143 40.9765625 13.84765625 C41.74868073 14.13415543 42.52079895 14.4206546 43.3163147 14.71583557 C53.21493273 18.31112813 62.14155014 19.2843459 72.67076302 19.27439499 C74.95479056 19.27341842 77.2383619 19.28650181 79.52232361 19.30337524 C86.0093952 19.34932056 92.49641345 19.37425406 98.98364258 19.38085938 C102.96887474 19.38589263 106.95362111 19.41022287 110.93868828 19.44618607 C112.44760653 19.4559317 113.95659199 19.45834482 115.4655323 19.45301437 C127.18330952 19.413535 134.12547015 20.76776338 142.8125 29.1875 C143.84794451 30.1730119 144.88575221 31.15604621 145.92578125 32.13671875 C146.43963379 32.62188965 146.95348633 33.10706055 147.48291016 33.60693359 C149.73795023 35.67762215 152.11097909 37.58671486 154.5 39.5 C159.10129523 43.2036437 163.47938638 47.08585852 167.78320312 51.12719727 C170.41590284 53.59296856 173.08505137 55.81980228 176 57.9375 C179.83183379 61.13223371 180.62147613 65.31709552 181.9921875 69.96484375 C184.82274001 78.48941467 190.06872735 83.9566061 198 88 C200.95916774 89.1836671 203.92343601 90.17085509 207 91 C207.59167969 90.41089844 208.18335938 89.82179688 208.79296875 89.21484375 C209.97826172 88.08755859 209.97826172 88.08755859 211.1875 86.9375 C211.96480469 86.18339844 212.74210938 85.42929688 213.54296875 84.65234375 C214.35378906 84.10707031 215.16460937 83.56179687 216 83 C217.65 83.33 219.3 83.66 221 84 C221 119.97 221 155.94 221 193 C219.68 192.67 218.36 192.34 217 192 C205.20703755 191.2138025 197.17144015 192.28775806 187.4375 199.25 C183.94579952 201.61203268 181.36253549 202.98626014 177.09765625 202.6640625 C173.37940236 201.48696164 170.50865889 199.06650074 167.41015625 196.7578125 C159.11020688 190.70436483 149.88006791 191.4757515 140 192 C139.34770039 192.16749221 138.69540077 192.33498442 138.0233345 192.50755215 C135.863148 193.03330763 134.01899564 193.10791149 131.79852295 193.08229065 C130.96843719 193.07525116 130.13835144 193.06821167 129.28311157 193.06095886 C128.3811203 193.04801285 127.47912903 193.03506683 126.54980469 193.02172852 C125.59337067 193.01212097 124.63693665 193.00251343 123.65151978 192.99261475 C120.49156281 192.95964544 117.33174499 192.91930506 114.171875 192.87890625 C111.9804127 192.85460312 109.78894526 192.83075966 107.59747314 192.80735779 C101.83034405 192.74453609 96.06330603 192.67546391 90.29626465 192.60510254 C84.41109361 192.53440189 78.52585802 192.46959527 72.640625 192.40429688 C61.09367905 192.27530917 49.54682072 192.13972006 38 192 C37.99761165 191.32339451 37.99522329 190.64678902 37.99276257 189.94968033 C37.93364371 173.49143077 37.85811378 157.03334686 37.76428509 140.57526016 C37.71930668 132.61626763 37.6798968 124.65732005 37.65356445 116.69824219 C37.63060086 109.76164461 37.59722134 102.82518905 37.55129844 95.88870406 C37.52734391 92.21537523 37.50862984 88.54218723 37.50238609 84.86878204 C37.49522328 80.76941348 37.46480805 76.67053555 37.43237305 72.57128906 C37.43380814 71.35137268 37.43524323 70.1314563 37.4367218 68.87457275 C37.42418365 67.75840576 37.41164551 66.64223877 37.39872742 65.49224854 C37.39411845 64.52252232 37.38950949 63.5527961 37.38476086 62.55368423 C36.93306746 59.55576416 36.05192349 58.19917389 34 56 C31.80901121 54.80705629 31.80901121 54.80705629 29.26904297 54.0012207 C28.31150116 53.66439774 27.35395935 53.32757477 26.36740112 52.98054504 C25.33608063 52.63247299 24.30476013 52.28440094 23.2421875 51.92578125 C22.18339386 51.55647995 21.12460022 51.18717865 20.03372192 50.8066864 C16.65162537 49.62957515 13.26369094 48.47047481 9.875 47.3125 C6.48047939 46.14031387 3.08725159 44.9644961 -0.30514526 43.78617859 C-2.41702327 43.05396898 -4.53038206 42.3260145 -6.64529419 41.60261536 C-8.07215042 41.11156563 -8.07215042 41.11156563 -9.52783203 40.6105957 C-10.79000046 40.17901909 -10.79000046 40.17901909 -12.07766724 39.73872375 C-14 39 -14 39 -15 38 C-16.47235834 25.13496733 -11.60350768 14.13801024 -4 4 C-2.67833228 2.65510223 -1.34649596 1.32003947 0 0 Z " fill="#FD3D96" transform="translate(77,165)"/>
<path d="M0 0 C7.24757596 5.86256799 12.37142109 17.042816 14 26 C14.14019707 29.67516603 14.09972397 33.32478829 14 37 C7.79591145 39.6370602 1.48626122 41.89570881 -4.89453125 44.05859375 C-6.5254055 44.61519078 -8.15626462 45.17183217 -9.78710938 45.72851562 C-12.31043662 46.58900397 -14.83490508 47.44497122 -17.36401367 48.28833008 C-19.83731174 49.11498817 -22.30364679 49.96011687 -24.76953125 50.80859375 C-25.89776054 51.17760048 -25.89776054 51.17760048 -27.04878235 51.55406189 C-28.11095222 51.92453392 -28.11095222 51.92453392 -29.19458008 52.30249023 C-29.810616 52.51026596 -30.42665192 52.71804169 -31.06135559 52.93211365 C-34.25164134 54.68945635 -35.8212711 55.98574096 -38 59 C-38.76129349 63.22112683 -38.68977234 67.40530161 -38.65942383 71.68481445 C-38.66990753 72.9730159 -38.68039124 74.26121735 -38.69119263 75.5884552 C-38.71931559 79.113017 -38.71687186 82.63696974 -38.70889878 86.16160989 C-38.70577193 89.84791794 -38.7308132 93.53403261 -38.75285339 97.22026062 C-38.79029505 104.19707445 -38.80244144 111.17369337 -38.8054778 118.15059775 C-38.81104587 127.58096562 -38.85573348 137.01114309 -38.89821911 146.44140339 C-38.9641047 161.29431626 -38.97776166 176.14680916 -39 191 C-71.67 191 -104.34 191 -138 191 C-138.33 155.36 -138.66 119.72 -139 83 C-144.12939824 84.02587965 -144.55011673 84.22192357 -147.75 87.75 C-151.30563169 90.99876666 -151.30563169 90.99876666 -154.19921875 91.00390625 C-156.66682603 90.24166107 -158.74425851 89.25830478 -161 88 C-161.77859375 87.5771875 -162.5571875 87.154375 -163.359375 86.71875 C-172.00362232 81.49739256 -176.03097102 74.85615799 -179.43359375 65.515625 C-180.06076847 62.73010416 -180.18714299 61.58499101 -179 59 C-176.8828125 56.73828125 -176.8828125 56.73828125 -174.125 54.3125 C-173.63249756 53.87607178 -173.13999512 53.43964355 -172.63256836 52.98999023 C-168.46075412 49.32248311 -164.14405399 45.83765607 -159.8203125 42.3515625 C-156.76577618 39.80470535 -153.84786557 37.14596362 -150.9375 34.4375 C-134.05276739 18.77985551 -134.05276739 18.77985551 -123.36474609 18.71289062 C-122.71844238 18.70605759 -122.07213867 18.69922455 -121.40625 18.69218445 C-120.00895001 18.67864548 -118.61160117 18.66956079 -117.21424484 18.66447449 C-114.99272551 18.6561347 -112.77160742 18.63557921 -110.55020142 18.61193848 C-105.82519458 18.56382234 -101.10014675 18.53087467 -96.375 18.5 C-90.91565149 18.46415297 -85.45649731 18.42186561 -79.99733353 18.36405945 C-77.82675668 18.34423693 -75.65633496 18.33571917 -73.48568726 18.32775879 C-63.13558572 18.24985939 -53.69636717 17.28729984 -43.9609375 13.609375 C-42.72843262 13.14950195 -41.49592773 12.68962891 -40.22607422 12.21582031 C-39.59602478 11.97593384 -38.96597534 11.73604736 -38.3168335 11.4888916 C-36.34098607 10.73705728 -34.36096315 9.99735475 -32.37939453 9.26074219 C-28.58329503 7.84832915 -24.79142665 6.4249098 -21 5 C-17.63018461 3.73521365 -14.25633492 2.48361641 -10.875 1.25 C-10.21419434 0.99831055 -9.55338867 0.74662109 -8.87255859 0.48730469 C-5.58850847 -0.70352735 -3.25848235 -1.5201402 0 0 Z " fill="#28A6FE" transform="translate(436,166)"/>
<path d="M0 0 C2.75021549 2.37112649 3.74499168 4.48882752 4.8671875 7.91796875 C5.19315918 8.913125 5.51913086 9.90828125 5.85498047 10.93359375 C6.35989014 12.54427734 6.35989014 12.54427734 6.875 14.1875 C7.22578613 15.29867187 7.57657227 16.40984375 7.93798828 17.5546875 C10.26680496 25.1353873 12.24655033 32.73924161 13.875 40.5 C14.06562012 41.40387451 14.25624023 42.30774902 14.45263672 43.23901367 C17.57281441 59.02485382 18.37673166 74.57241 18.3125 90.625 C18.30926727 92.08082993 18.30926727 92.08082993 18.30596924 93.56607056 C18.2549334 107.89430898 17.90758438 121.92185782 15 136 C14.80132324 136.98307129 14.60264648 137.96614258 14.39794922 138.97900391 C7.88407655 170.29926508 -3.81065917 200.54682325 -22 227 C-22.40283203 227.59522461 -22.80566406 228.19044922 -23.22070312 228.80371094 C-29.25834398 237.68794157 -35.89640982 245.94993572 -43 254 C-43.43924805 254.50241211 -43.87849609 255.00482422 -44.33105469 255.52246094 C-56.36968587 269.23882575 -69.87953986 281.72052794 -85 292 C-85.33 292 -85.66 292 -86 292 C-86.09123158 262.52971493 -86.16202897 233.05943655 -86.20426132 203.58903994 C-86.2092642 200.11054788 -86.21444149 196.6320561 -86.21972656 193.15356445 C-86.2207758 192.46105338 -86.22182505 191.7685423 -86.22290608 191.05504604 C-86.24031587 179.83895696 -86.27185668 168.62294979 -86.30861118 157.40690932 C-86.34600473 145.89996954 -86.36793303 134.39308742 -86.37635398 122.88608807 C-86.38157591 116.42201172 -86.39387802 109.95812125 -86.42292023 103.49410439 C-86.45002179 97.41289128 -86.45845554 91.33194105 -86.45243073 85.25067329 C-86.45353331 83.016142 -86.46151822 80.78160212 -86.4768219 78.54712296 C-86.49666706 75.50071997 -86.49195874 72.45531492 -86.48101807 69.40888977 C-86.49266943 68.52075397 -86.5043208 67.63261818 -86.51632524 66.71756917 C-86.47640443 62.61679914 -86.33505323 60.53250659 -84.10306931 56.98517132 C-81.90193169 54.90742939 -80.36257273 53.99409864 -77.51171875 53.03515625 C-76.59616211 52.71699951 -75.68060547 52.39884277 -74.73730469 52.07104492 C-73.73086914 51.7382251 -72.72443359 51.40540527 -71.6875 51.0625 C-69.4568107 50.28969883 -67.22635902 49.51621154 -64.99609375 48.7421875 C-63.74812012 48.31518555 -62.50014648 47.88818359 -61.21435547 47.44824219 C-53.75529774 44.89206458 -46.32163576 42.26372108 -38.89224243 39.62277222 C-36.27838811 38.69754852 -33.66029506 37.78513388 -31.04174805 36.87329102 C-29.40783329 36.29501835 -27.77411661 35.71618563 -26.140625 35.13671875 C-25.39261124 34.8796817 -24.64459747 34.62264465 -23.87391663 34.3578186 C-17.34980106 32.01797343 -13.15718938 29.17321775 -10.125 22.75 C-9.63 21.7084375 -9.135 20.666875 -8.625 19.59375 C-5.68435892 13.09040916 -2.81350315 6.55929137 0 0 Z " fill="#FDF056" transform="translate(483,165)"/>
<path d="M0 0 C2.26127598 2.81034495 3.76564791 5.47118632 5.12109375 8.80859375 C5.49943359 9.72060547 5.87777344 10.63261719 6.26757812 11.57226562 C7.0456012 13.47770778 7.82165354 15.38395585 8.59570312 17.29101562 C12.63724305 27.01404122 16.45946784 30.67899627 26 35 C29.75430478 36.47549032 33.55585742 37.78109847 37.37890625 39.06640625 C38.43101791 39.42717758 39.48312958 39.78794891 40.56712341 40.15965271 C43.89669441 41.30056654 47.22929241 42.43225916 50.5625 43.5625 C53.89890709 44.69733727 57.2345484 45.83428483 60.56858826 46.97605896 C62.63293667 47.68269381 64.69866632 48.38531141 66.76600647 49.08314514 C83.94070184 54.95101479 83.94070184 54.95101479 87 60 C87.36914349 62.86603165 87.36914349 62.86603165 87.36076355 66.25152588 C87.36488754 67.53597595 87.36901154 68.82042603 87.3732605 70.14379883 C87.3626437 71.56494351 87.35173928 72.98608607 87.34057617 74.40722656 C87.33972985 75.9053343 87.34020513 77.40344328 87.34190369 78.90155029 C87.34276489 82.96740841 87.32511898 87.03300134 87.30418181 91.0987978 C87.28543583 95.34822052 87.28366621 99.59764924 87.28010559 103.84710693 C87.27077901 111.89354016 87.24615694 119.9398512 87.21605712 127.98623061 C87.18253218 137.14695409 87.1660319 146.30768338 87.15097082 155.46845293 C87.11960791 174.31237124 87.0668355 193.1561758 87 212 C86.17109253 212.12851349 85.34218506 212.25702698 84.48815918 212.38943481 C83.40345337 212.56272308 82.31874756 212.73601135 81.20117188 212.91455078 C80.1247644 213.08431427 79.04835693 213.25407776 77.93933105 213.4289856 C74.67443402 214.06324666 72.27353435 215.04180777 69.5 216.875 C68.7265625 217.36742187 67.953125 217.85984375 67.15625 218.3671875 C64.9186788 219.97902825 64.9186788 219.97902825 62.90625 222.1328125 C60.00889847 224.97079207 57.09679946 225.32565983 53.1328125 225.30078125 C50.49522255 224.92881344 48.33622783 224.01534618 45.875 223 C37.14208969 219.60787781 28.77346355 220.24451522 20 223 C15.93474775 215.70148725 11.93554083 208.36929385 8 201 C7.40977051 199.89760986 7.40977051 199.89760986 6.80761719 198.77294922 C-10.52489817 165.85099016 -17.46007001 128.25527046 -17.3125 91.375 C-17.31034485 90.40444672 -17.3081897 89.43389343 -17.30596924 88.43392944 C-17.25494138 74.10793322 -16.9158114 60.07489711 -14 46 C-13.79600586 45.00097656 -13.59201172 44.00195312 -13.38183594 42.97265625 C-5.50547269 5.50547269 -5.50547269 5.50547269 0 0 Z " fill="#FDF056" transform="translate(28,165)"/>
<path d="M0 0 C32.67 0 65.34 0 99 0 C99.842285 24.68474388 99.842285 24.68474388 100.02539062 35.26757812 C100.15061681 42.47086316 100.29812243 49.66850668 100.58422852 56.86743164 C100.8136785 62.67764665 100.9381941 68.48181595 100.9924221 74.29621315 C101.0310161 76.5053518 101.10640977 78.71418418 101.22033119 80.92072105 C101.91256991 94.89386883 101.91256991 94.89386883 99 101 C94.00702276 106.44192972 87.43492385 109.63436404 80.81078434 112.68924046 C76.96081668 114.48460475 73.24768885 116.50912535 69.51345253 118.5315361 C48.40649276 129.89385456 23.78210845 138.02723644 0 141 C0 94.47 0 47.94 0 0 Z " fill="#59408E" transform="translate(298,357)"/>
<path d="M0 0 C3.03728122 1.62690594 5.76154109 3.62499211 8.5625 5.625 C11.87125893 7.84985514 14.60517574 9.40924584 18.76171875 9.109375 C23.02131849 7.71180999 26.4961432 4.96538739 30.0703125 2.3203125 C35.59788182 -1.34999353 40.6063814 -1.94756347 47.125 -1.875 C47.82753906 -1.88273437 48.53007812 -1.89046875 49.25390625 -1.8984375 C53.30429727 -1.88312411 55.27730641 -1.48634679 59 0.375 C59 46.575 59 92.775 59 140.375 C48.83837424 142.40732515 39.38745408 143.52658134 29.1015625 143.578125 C28.18651947 143.58382507 27.27147644 143.58952515 26.32870483 143.59539795 C24.40095144 143.60478074 22.47318248 143.61135491 20.54541016 143.61523438 C17.66668911 143.62486059 14.78870811 143.65591637 11.91015625 143.6875 C10.01562913 143.69404053 8.12109702 143.69928686 6.2265625 143.703125 C5.39871246 143.7154718 4.57086243 143.7278186 3.71792603 143.74053955 C-6.16800861 143.7055168 -14.91698223 141.88745267 -25 140.375 C-25 93.845 -25 47.315 -25 -0.625 C-17.85358009 -3.00713997 -7.00733605 -3.00492524 0 0 Z " fill="#3ECD8C" transform="translate(239,357.625)"/>
<path d="M0 0 C11.39837297 2.70934299 22.28658477 6.99617978 33.26269531 11.0324707 C35.83228357 11.97559483 38.40429772 12.91186143 40.9765625 13.84765625 C41.74868073 14.13415543 42.52079895 14.4206546 43.3163147 14.71583557 C51.92875429 17.84397325 59.9062158 19.29275368 69.06640625 19.4140625 C69.98590561 19.43342865 70.90540497 19.4527948 71.85276794 19.4727478 C74.75592107 19.5319684 77.6591151 19.57869633 80.5625 19.625 C82.54493805 19.66323285 84.52736043 19.70228757 86.50976562 19.7421875 C91.33971472 19.83762178 96.16974139 19.92186206 101 20 C99.0404582 21.97587132 97.09483837 23.91701643 95 25.75 C89.67652251 31.73891217 87.88716028 38.39453383 87.84178162 46.25152588 C87.8319928 47.53597595 87.82220398 48.82042603 87.81211853 50.14379883 C87.80621471 51.56494103 87.80040424 52.98608363 87.79467773 54.40722656 C87.78509643 55.90533721 87.77508619 57.40344516 87.76467896 58.90155029 C87.73765121 62.96728225 87.71663011 67.03302579 87.69667697 71.0987978 C87.67480428 75.34825563 87.64742186 79.59767784 87.62062073 83.84710693 C87.5707112 91.893462 87.52576591 99.93983686 87.48259836 107.98623061 C87.43321113 117.14699482 87.37829851 126.30772329 87.32291877 135.46845293 C87.20912542 154.31227025 87.10301003 173.15612044 87 192 C70.83 192 54.66 192 38 192 C37.98541748 188.02227539 37.97083496 184.04455078 37.95581055 179.94628906 C37.90553521 166.82253189 37.83910386 153.69889857 37.76428509 140.57526016 C37.71930668 132.61626763 37.6798968 124.65732005 37.65356445 116.69824219 C37.63060086 109.76164461 37.59722134 102.82518905 37.55129844 95.88870406 C37.52734391 92.21537523 37.50862984 88.54218723 37.50238609 84.86878204 C37.49522328 80.76941348 37.46480805 76.67053555 37.43237305 72.57128906 C37.43380814 71.35137268 37.43524323 70.1314563 37.4367218 68.87457275 C37.42418365 67.75840576 37.41164551 66.64223877 37.39872742 65.49224854 C37.39411845 64.52252232 37.38950949 63.5527961 37.38476086 62.55368423 C36.93306746 59.55576416 36.05192349 58.19917389 34 56 C31.80901121 54.80705629 31.80901121 54.80705629 29.26904297 54.0012207 C28.31150116 53.66439774 27.35395935 53.32757477 26.36740112 52.98054504 C25.33608063 52.63247299 24.30476013 52.28440094 23.2421875 51.92578125 C22.18339386 51.55647995 21.12460022 51.18717865 20.03372192 50.8066864 C16.65162537 49.62957515 13.26369094 48.47047481 9.875 47.3125 C6.48047939 46.14031387 3.08725159 44.9644961 -0.30514526 43.78617859 C-2.41702327 43.05396898 -4.53038206 42.3260145 -6.64529419 41.60261536 C-8.07215042 41.11156563 -8.07215042 41.11156563 -9.52783203 40.6105957 C-10.79000046 40.17901909 -10.79000046 40.17901909 -12.07766724 39.73872375 C-14 39 -14 39 -15 38 C-16.47235834 25.13496733 -11.60350768 14.13801024 -4 4 C-2.67833228 2.65510223 -1.34649596 1.32003947 0 0 Z " fill="#E51E81" transform="translate(77,165)"/>
<path d="M0 0 C7.24757596 5.86256799 12.37142109 17.042816 14 26 C14.14019707 29.67516603 14.09972397 33.32478829 14 37 C7.79591145 39.6370602 1.48626122 41.89570881 -4.89453125 44.05859375 C-6.5254055 44.61519078 -8.15626462 45.17183217 -9.78710938 45.72851562 C-12.31043662 46.58900397 -14.83490508 47.44497122 -17.36401367 48.28833008 C-19.83731174 49.11498817 -22.30364679 49.96011687 -24.76953125 50.80859375 C-25.89776054 51.17760048 -25.89776054 51.17760048 -27.04878235 51.55406189 C-27.7568956 51.80104324 -28.46500885 52.0480246 -29.19458008 52.30249023 C-29.810616 52.51026596 -30.42665192 52.71804169 -31.06135559 52.93211365 C-34.25164134 54.68945635 -35.8212711 55.98574096 -38 59 C-38.76129349 63.22112683 -38.68977234 67.40530161 -38.65942383 71.68481445 C-38.67514938 73.61711662 -38.67514938 73.61711662 -38.69119263 75.5884552 C-38.71931559 79.113017 -38.71687186 82.63696974 -38.70889878 86.16160989 C-38.70577193 89.84791794 -38.7308132 93.53403261 -38.75285339 97.22026062 C-38.79029505 104.19707445 -38.80244144 111.17369337 -38.8054778 118.15059775 C-38.81016852 126.09503367 -38.84309219 134.03927432 -38.87837565 141.9836241 C-38.95030978 158.3224401 -38.98310001 174.66102031 -39 191 C-55.17 191 -71.34 191 -88 191 C-88.045281 174.42227586 -88.08206689 157.84460513 -88.10362434 141.26683617 C-88.1139033 133.56816761 -88.12789835 125.86954043 -88.15087891 118.17089844 C-88.17091698 111.45476203 -88.18374095 104.73865562 -88.18817699 98.02249014 C-88.19076687 94.47178724 -88.19678225 90.92117006 -88.21146011 87.37049484 C-88.227776 83.39067659 -88.22797308 79.41100401 -88.22705078 75.43115234 C-88.23424133 74.27524094 -88.24143188 73.11932953 -88.24884033 71.9283905 C-88.20321898 53.59788287 -84.74880179 36.49390042 -72.4296875 22.41015625 C-68.87308883 18.90214499 -65.98298748 18.65039664 -61.1875 18.0625 C-52.41143636 16.7474654 -44.27159745 13.79278579 -36 10.6875 C-35.34834869 10.44319244 -34.69669739 10.19888489 -34.02529907 9.94717407 C-30.8327859 8.74695171 -27.64405538 7.53709964 -24.45800781 6.31982422 C-19.94218175 4.59626056 -15.41753118 2.90178301 -10.875 1.25 C-9.88306641 0.87234497 -9.88306641 0.87234497 -8.87109375 0.48706055 C-5.58759351 -0.70409095 -3.25795902 -1.51989606 0 0 Z " fill="#02C0FB" transform="translate(436,166)"/>
<path d="M0 0 C2.3364192 2.3364192 2.71392579 3.93032234 3.6875 7.0625 C7.0271902 16.28583215 11.52075027 21.70986569 20.1875 26.1875 C20.79384277 26.50364258 21.40018555 26.81978516 22.02490234 27.14550781 C25.50179023 28.78806047 25.50179023 28.78806047 29.2109375 28.375 C31.69599798 26.46508452 33.89690325 24.34807961 36.12109375 22.14453125 C38 21 38 21 43 22 C43 57.97 43 93.94 43 131 C41.68 130.67 40.36 130.34 39 130 C27.20703755 129.2138025 19.17144015 130.28775806 9.4375 137.25 C5.94579952 139.61203268 3.36253549 140.98626014 -0.90234375 140.6640625 C-4.55357392 139.50817958 -7.35751067 137.20518144 -10.3125 134.82421875 C-20.54973366 127.87539881 -27.92649192 130 -41 130 C-41 92.71 -41 55.42 -41 17 C-35.44330316 16.20618617 -32.80526274 16.04359981 -27.625 16.875 C-22.77567263 17.29619872 -20.19419462 17.13107257 -16.3125 14.125 C-14.84748387 12.77935555 -13.41159392 11.40158262 -12 10 C-10.1921641 8.36981271 -8.37961973 6.74483244 -6.5625 5.125 C-5.73878906 4.36445313 -4.91507813 3.60390625 -4.06640625 2.8203125 C-2 1 -2 1 0 0 Z " fill="#FDF056" transform="translate(255,227)"/>
<path d="M0 0 C8.064375 -0.020625 16.12875 -0.04125 24.4375 -0.0625 C26.98654053 -0.071604 29.53558105 -0.08070801 32.16186523 -0.09008789 C34.16910754 -0.09300688 36.17635043 -0.09555548 38.18359375 -0.09765625 C39.76291687 -0.1053302 39.76291687 -0.1053302 41.37414551 -0.11315918 C42.36885864 -0.11328003 43.36357178 -0.11340088 44.38842773 -0.11352539 C45.25668686 -0.115746 46.12494598 -0.11796661 47.01951599 -0.12025452 C49 0 49 0 50 1 C50.09641497 2.80960871 50.12187398 4.62302128 50.12025452 6.43519592 C50.12162918 7.61455215 50.12300385 8.79390839 50.12442017 10.00900269 C50.11902725 11.96726486 50.11902725 11.96726486 50.11352539 13.96508789 C50.11324352 15.34452818 50.11340125 16.72396861 50.1139679 18.10340881 C50.11425588 21.85944118 50.10835905 25.61544189 50.10139394 29.37146688 C50.09516051 33.29260045 50.09455661 37.21373467 50.09336853 41.13487244 C50.09025518 48.56511611 50.08204175 55.99534514 50.07201904 63.42558235 C50.06085801 71.88251638 50.05534748 80.3394511 50.05032361 88.79639065 C50.03985914 106.19760225 50.02225963 123.59879958 50 141 C46.78698159 140.36710428 43.57470723 139.73050666 40.36254883 139.09326172 C39.00459576 138.82584419 39.00459576 138.82584419 37.61920929 138.55302429 C31.54942353 137.34641712 25.59570849 135.97959459 19.6875 134.125 C18.94951172 133.90714844 18.21152344 133.68929687 17.45117188 133.46484375 C9.78770888 131.12376898 2.41022154 128.03053145 -5 125 C-5.0694906 117.35923782 -5.1228064 109.71850838 -5.15543652 102.07750225 C-5.17109693 98.52950064 -5.19234151 94.98171513 -5.22631836 91.43383789 C-5.26513007 87.35561033 -5.27970602 83.27760999 -5.29296875 79.19921875 C-5.30845261 77.92414963 -5.32393646 76.64908051 -5.33988953 75.33537292 C-5.34011612 74.15437515 -5.34034271 72.97337738 -5.34057617 71.7565918 C-5.34723801 70.71512497 -5.35389984 69.67365814 -5.36076355 68.60063171 C-5 66 -5 66 -3.60371399 64.14021301 C-2 63 -2 63 0 63 C0 42.21 0 21.42 0 0 Z " fill="#59408E" transform="translate(164,357)"/>
<path d="M0 0 C1.36267834 0.98836993 2.71813783 1.9868575 4.0625 3 C4.92875 3.5775 5.795 4.155 6.6875 4.75 C15.54517532 13.14148188 20.10335293 23.21479405 20.53295898 35.29760742 C20.63216691 44.16318799 19.89260375 51.87445279 16.0625 60 C15.63839844 60.92941406 15.21429688 61.85882813 14.77734375 62.81640625 C8.74660831 74.89467584 -1.16707105 85.58572868 -14.03515625 90.3046875 C-23.52273045 92.57761914 -33.48451149 92.0322139 -41.9375 87 C-55.69863968 77.60417653 -64.99267141 64.61790071 -68.5 48.19921875 C-70.39653338 34.33081839 -68.84778767 22.65519672 -60.55859375 11.05859375 C-45.70743863 -7.80058396 -20.66614958 -13.41427172 0 0 Z " fill="#FEC7AA" transform="translate(371.9375,79)"/>
<path d="M0 0 C2.28088548 1.68416501 4.30201583 3.44761298 6.33203125 5.42578125 C7.03972656 6.10640625 7.74742187 6.78703125 8.4765625 7.48828125 C17.98188642 17.36394246 20.7610991 27.95691918 20.54296875 41.25390625 C19.96761131 56.89510478 12.16655358 71.05470927 0.94921875 81.68359375 C-7.82631369 89.13866989 -15.62705568 92.19403592 -27.20703125 91.8046875 C-36.67018743 90.76865347 -43.74565847 86.81167634 -50.66796875 80.42578125 C-51.34601563 79.801875 -52.0240625 79.17796875 -52.72265625 78.53515625 C-64.23721471 66.79657914 -69.11610677 51.66471062 -69.02929688 35.58007812 C-68.7662202 23.88677369 -64.50834008 15.10807165 -56.66796875 6.42578125 C-50.08889758 0.48468062 -43.1565361 -3.13908679 -34.66796875 -5.57421875 C-33.70117188 -5.85845703 -33.70117188 -5.85845703 -32.71484375 -6.1484375 C-21.45989004 -8.4896397 -9.7878377 -5.77525416 0 0 Z " fill="#EDA36F" transform="translate(188.66796875,78.57421875)"/>
<path d="M0 0 C15.84 0 31.68 0 48 0 C48.08386217 8.02514416 48.1639992 16.04870371 48.20700073 24.07390594 C48.22813186 27.81093573 48.25637257 31.5476032 48.30175781 35.28442383 C48.34519111 38.88301372 48.36913156 42.48125209 48.37950897 46.08008385 C48.38690503 47.45366641 48.401348 48.82722954 48.42292023 50.20066261 C48.45191442 52.12292371 48.45363355 54.04553788 48.45410156 55.96801758 C48.46298401 57.06277908 48.47186646 58.15754059 48.48101807 59.28547668 C48 62 48 62 46.0057373 63.4942627 C43.70411355 64.86950198 43.70411355 64.86950198 43.48101807 67.75248718 C43.4676944 69.42127678 43.4676944 69.42127678 43.45410156 71.1237793 C43.43438293 72.38486008 43.41466431 73.64594086 43.39434814 74.94523621 C43.39268499 76.32156328 43.39145412 77.69789093 43.390625 79.07421875 C43.37564534 80.48242601 43.35891863 81.89061568 43.34051514 83.29878235 C43.29680425 87.00266317 43.27683464 90.70630701 43.26177979 94.41040039 C43.24222185 98.19106074 43.20025052 101.97146465 43.16015625 105.75195312 C43.08481393 113.16789987 43.03454728 120.58373913 43 128 C41.42004089 128.63944205 39.83932598 129.27701679 38.25830078 129.91381836 C37.37812286 130.26907089 36.49794495 130.62432343 35.59109497 130.99034119 C32.06612952 132.36389657 28.50422212 133.5015955 24.875 134.5625 C24.24335938 134.75779297 23.61171875 134.95308594 22.9609375 135.15429688 C15.36395596 137.39686739 7.9018045 138.51841166 0 140 C0 93.8 0 47.6 0 0 Z " fill="#381A6E" transform="translate(299,358)"/>
<path d="M0 0 C9.39979092 5.80346031 12.59177615 15.38410693 16.5625 25.125 C17.18482772 26.6239693 17.80820808 28.12250199 18.43261719 29.62060547 C21.9819782 38.16260434 25.45001796 46.73798056 28.83569336 55.34619141 C31.85536123 62.98316587 35.144914 70.50000323 38.45214844 78.01611328 C38.85852539 78.94020996 39.26490234 79.86430664 39.68359375 80.81640625 C40.22777954 82.04725952 40.22777954 82.04725952 40.78295898 83.30297852 C41.6875 85.4375 41.6875 85.4375 42.6875 88.4375 C44.3375 88.7675 45.9875 89.0975 47.6875 89.4375 C47.32398437 89.89898437 46.96046875 90.36046875 46.5859375 90.8359375 C37.36795587 102.79567776 32.52381473 113.26848113 31.6875 128.4375 C20.96074637 125.53600107 13.78438227 123.06514053 7.6875 113.4375 C5.85002859 109.82545604 4.28869675 106.12259256 2.75 102.375 C0.1263697 96.10335657 -2.54761592 89.87743518 -5.4453125 83.7265625 C-10.05329295 73.93210776 -14.47288851 64.05583226 -18.81274414 54.13989258 C-19.77361911 51.95715419 -20.74439715 49.77874941 -21.72485352 47.60473633 C-32.64661695 23.35984157 -32.64661695 23.35984157 -30.3125 12.4375 C-27.83020835 6.41761244 -23.96290314 2.13079625 -17.98828125 -0.640625 C-12.17365461 -2.64391242 -5.63793203 -2.52622724 0 0 Z " fill="#EDA36F" transform="translate(30.3125,74.5625)"/>
<path d="M0 0 C3.94019023 2.91932276 6.88177704 6.71883444 8.71875 11.2734375 C9.92504143 21.19719232 8.00206219 28.91013503 3.86328125 37.84765625 C3.36463058 38.97814896 2.86597992 40.10864166 2.35221863 41.27339172 C0.76916217 44.84715661 -0.84889051 48.40372703 -2.46875 51.9609375 C-3.53686366 54.35637164 -4.60263904 56.75284985 -5.66601562 59.15039062 C-8.95106417 66.53631472 -12.28542843 73.89920926 -15.64089966 81.25337219 C-17.81252615 86.01678802 -19.95898417 90.78418115 -22 95.60546875 C-22.45761719 96.67087891 -22.91523438 97.73628906 -23.38671875 98.83398438 C-24.32348575 101.01846204 -25.25307651 103.20602984 -26.17578125 105.39648438 C-29.67819341 113.50136209 -32.72738496 119.60876495 -41.01171875 123.39453125 C-45.02499148 124.94872465 -49.12932026 126.15037454 -53.28125 127.2734375 C-53.31992187 126.29117188 -53.31992187 126.29117188 -53.359375 125.2890625 C-54.24301889 111.07042902 -59.76256068 100.45907211 -68.28125 89.2734375 C-67.6625 89.0465625 -67.04375 88.8196875 -66.40625 88.5859375 C-63.57276168 86.83584178 -63.43600958 85.39828058 -62.28125 82.2734375 C-61.76436399 81.0247353 -61.24082757 79.77877509 -60.71240234 78.53491211 C-60.41776596 77.83836014 -60.12312958 77.14180817 -59.81956482 76.42414856 C-59.5052803 75.68218735 -59.19099579 74.94022614 -58.8671875 74.17578125 C-58.18534595 72.56271329 -57.50362858 70.94959283 -56.82202148 69.33642578 C-56.46792206 68.4985553 -56.11382263 67.66068481 -55.74899292 66.79742432 C-48.5996735 49.90315965 -48.5996735 49.90315965 -41.71875 32.8984375 C-40.57550868 30.02239919 -39.42927772 27.14756822 -38.28125 24.2734375 C-37.98992187 23.5402832 -37.69859375 22.80712891 -37.3984375 22.05175781 C-30.09627656 3.85191538 -30.09627656 3.85191538 -21.03125 -1.7265625 C-13.68190615 -3.68638753 -6.71983552 -3.88318364 0 0 Z " fill="#FEC7AA" transform="translate(503.28125,75.7265625)"/>
<path d="M0 0 C2.3364192 2.3364192 2.71392579 3.93032234 3.6875 7.0625 C7.0271902 16.28583215 11.52075027 21.70986569 20.1875 26.1875 C20.79384277 26.50364258 21.40018555 26.81978516 22.02490234 27.14550781 C25.50179023 28.78806047 25.50179023 28.78806047 29.2109375 28.375 C31.69599798 26.46508452 33.89690325 24.34807961 36.12109375 22.14453125 C38 21 38 21 43 22 C43 33.88 43 45.76 43 58 C11.69336826 61.6297544 11.69336826 61.6297544 5.375 57.375 C4.80523437 56.88773437 4.23546875 56.40046875 3.6484375 55.8984375 C3.10445313 55.60195313 2.56046875 55.30546875 2 55 C0.04234856 55.63730858 0.04234856 55.63730858 -2 57 C-13.63028644 63.60227586 -28.51676624 59.38702597 -41 58 C-41 44.47 -41 30.94 -41 17 C-35.44330316 16.20618617 -32.80526274 16.04359981 -27.625 16.875 C-22.77567263 17.29619872 -20.19419462 17.13107257 -16.3125 14.125 C-14.84748387 12.77935555 -13.41159392 11.40158262 -12 10 C-10.1921641 8.36981271 -8.37961973 6.74483244 -6.5625 5.125 C-5.73878906 4.36445313 -4.91507813 3.60390625 -4.06640625 2.8203125 C-2 1 -2 1 0 0 Z " fill="#FEC6AA" transform="translate(255,227)"/>
<path d="M0 0 C0 26.4 0 52.8 0 80 C-7.88689442 74.74207039 -14.92438803 69.215093 -22 63 C-22.50966309 62.55495117 -23.01932617 62.10990234 -23.54443359 61.65136719 C-39.52359049 47.62469769 -55.74170942 30.78344531 -66 12 C-66 11.34 -66 10.68 -66 10 C-56.39044321 6.40898476 -47.7926781 7.27671868 -38.4375 11.09765625 C-35.12357797 12.3244447 -32.4885025 12.48839035 -29 12 C-26.43481086 10.81606655 -24.42133883 9.34041946 -22.23046875 7.5703125 C-14.91559137 1.77035055 -9.40975966 0 0 0 Z " fill="#3ECD8D" transform="translate(115,377)"/>
<path d="M0 0 C10.07601562 0 15.55003059 1.6974191 23.125 8.25 C27.08322335 11.6280904 27.08322335 11.6280904 32 12.75 C35.18487246 12.4194344 37.7763313 11.29385275 40.6875 10 C48.75883781 6.48747336 57.82908166 6.95965829 66 10 C64.50836757 14.3217026 62.22747623 17.8291687 59.5625 21.5 C59.12220459 22.11020996 58.68190918 22.72041992 58.22827148 23.34912109 C53.47525009 29.84796219 48.32463924 35.96591202 43 42 C42.56075195 42.50241211 42.12150391 43.00482422 41.66894531 43.52246094 C29.63031413 57.23882575 16.12046014 69.72052794 1 80 C0.67 80 0.34 80 0 80 C0 53.6 0 27.2 0 0 Z " fill="#95DB75" transform="translate(397,377)"/>
<path d="M0 0 C0.70253906 -0.00773437 1.40507812 -0.01546875 2.12890625 -0.0234375 C6.17929727 -0.00812411 8.15230641 0.38865321 11.875 2.25 C11.875 29.97 11.875 57.69 11.875 86.25 C-3.05654011 81.27281996 -16.75536635 73.87411678 -24.125 59.25 C-30.96706902 43.79120031 -29.14493142 26.32416949 -24.2890625 10.53125 C-22.87694108 7.76387111 -21.48480408 6.71803898 -18.875 5.0625 C-18.12734375 4.57394531 -17.3796875 4.08539063 -16.609375 3.58203125 C-11.11258571 0.63485334 -6.17286062 -0.06871459 0 0 Z " fill="#94DA76" transform="translate(286.125,355.75)"/>
<path d="M0 0 C2.475 0.495 2.475 0.495 5 1 C5 12.88 5 24.76 5 37 C-27.24686017 40.7387664 -27.24686017 40.7387664 -34.7421875 35.09375 C-35.15726562 34.7328125 -35.57234375 34.371875 -36 34 C-34.4367019 30.0316279 -31.6788236 27.58425131 -28.5625 24.8125 C-28.02826416 24.32982666 -27.49402832 23.84715332 -26.94360352 23.34985352 C-22.66092059 19.51205901 -18.23446683 15.8703925 -13.73828125 12.28515625 C-11.75336009 10.62869566 -9.89566532 8.97556608 -8.04296875 7.18359375 C-7.55449463 6.71574463 -7.06602051 6.24789551 -6.56274414 5.76586914 C-5.19943654 4.44700968 -3.85308991 3.1106834 -2.5078125 1.7734375 C-1.68023437 1.18820313 -0.85265625 0.60296875 0 0 Z " fill="#ECA370" transform="translate(293,248)"/>
<path d="M0 0 C1.670625 0.4021875 1.670625 0.4021875 3.375 0.8125 C4.69710059 3.45670117 4.53622122 5.49449615 4.58032227 8.45556641 C4.60026749 9.63663971 4.62021271 10.81771301 4.64076233 12.03457642 C4.65747482 13.31480682 4.67418732 14.59503723 4.69140625 15.9140625 C4.71218735 17.22079926 4.73296844 18.52753601 4.75437927 19.87387085 C4.80959294 23.349189 4.85900525 26.82456653 4.90722656 30.29998779 C4.95744677 33.845879 5.01313012 37.3916839 5.06835938 40.9375 C5.17593228 47.8957585 5.27737917 54.85409496 5.375 61.8125 C3.7517313 62.4833712 2.12632422 63.14907029 0.5 63.8125 C-0.40492188 64.18375 -1.30984375 64.555 -2.2421875 64.9375 C-4.625 65.8125 -4.625 65.8125 -6.625 65.8125 C-6.69448076 57.65016524 -6.74780118 49.48795383 -6.78043652 41.32539654 C-6.7960991 37.5352656 -6.81734778 33.74533684 -6.85131836 29.95532227 C-6.8838913 26.29839399 -6.90184855 22.6416603 -6.90963173 18.98459816 C-6.91517901 17.58871204 -6.9260115 16.19283669 -6.94219017 14.79703331 C-6.96393429 12.8435541 -6.96522515 10.88987949 -6.96557617 8.9362793 C-6.97223801 7.8237529 -6.97889984 6.7112265 -6.98576355 5.56498718 C-6.625 2.8125 -6.625 2.8125 -5.33027649 0.91804504 C-3.625 -0.1875 -3.625 -0.1875 0 0 Z " fill="#94D975" transform="translate(348.625,420.1875)"/>
<path d="M0 0 C1.63496399 1.14070129 1.63496399 1.14070129 3 3 C3.36076355 5.75248718 3.36076355 5.75248718 3.34057617 9.1237793 C3.34034958 10.38486008 3.34012299 11.64594086 3.33988953 12.94523621 C3.32456963 14.32156732 3.30892164 15.69789482 3.29296875 17.07421875 C3.2873726 18.48240202 3.28310259 19.89059114 3.28010559 21.29878235 C3.26865818 25.00281944 3.23919235 28.7065029 3.20599365 32.41040039 C3.17529026 36.19086931 3.16159971 39.97139543 3.14648438 43.75195312 C3.11432216 51.16812986 3.06312755 58.58401536 3 66 C1.5410574 65.52269162 0.08286504 65.04308958 -1.375 64.5625 C-2.18710938 64.29566406 -2.99921875 64.02882813 -3.8359375 63.75390625 C-6 63 -6 63 -8 62 C-8.0694906 54.35923782 -8.1228064 46.71850838 -8.15543652 39.07750225 C-8.17109693 35.52950064 -8.19234151 31.98171513 -8.22631836 28.43383789 C-8.26513007 24.35561033 -8.27970602 20.27760999 -8.29296875 16.19921875 C-8.30845261 14.92414963 -8.32393646 13.64908051 -8.33988953 12.33537292 C-8.34011612 11.15437515 -8.34034271 9.97337738 -8.34057617 8.7565918 C-8.34723801 7.71512497 -8.35389984 6.67365814 -8.36076355 5.60063171 C-8 3 -8 3 -6.63496399 1.16365051 C-4.29593461 -0.50110342 -2.80335569 -0.42050335 0 0 Z " fill="#3ECB8D" transform="translate(167,420)"/>
</svg>
